<?xml version="1.0" standalone="no"?>
<!DOCTYPE svg PUBLIC "-//W3C//DTD SVG 20010904//EN"
 "http://www.w3.org/TR/2001/REC-SVG-20010904/DTD/svg10.dtd">
<svg version="1.0" xmlns="http://www.w3.org/2000/svg"
 width="1200.000000pt" height="1200.000000pt" viewBox="0 0 1200.000000 1200.000000"
 preserveAspectRatio="xMidYMid meet">
<metadata>
Created by potrace 1.14, written by Peter Selinger 2001-2017
</metadata>
<g transform="translate(0.000000,1200.000000) scale(0.100000,-0.100000)"
fill="#000000" stroke="none">
<path d="M5377 10763 c-3 -2 -58 -6 -123 -8 -66 -3 -144 -7 -174 -9 -30 -3
-89 -7 -130 -11 -41 -3 -95 -8 -120 -11 -25 -3 -61 -6 -80 -8 -35 -4 -93 -12
-160 -22 -19 -3 -48 -7 -65 -9 -16 -2 -40 -6 -51 -9 -12 -2 -39 -7 -60 -11
-22 -4 -48 -9 -59 -11 -11 -2 -51 -10 -90 -19 -38 -8 -83 -18 -99 -21 -16 -2
-34 -8 -40 -12 -6 -3 -15 -7 -21 -8 -10 -2 -146 -40 -173 -49 -7 -3 -13 -4
-15 -4 -20 1 -389 -138 -569 -215 -21 -9 -41 -17 -45 -17 -5 -1 -20 -10 -35
-21 -16 -11 -28 -17 -28 -14 0 7 -276 -137 -375 -195 -16 -10 -46 -26 -65 -36
-46 -23 -114 -66 -118 -76 -2 -4 -7 -5 -12 -2 -4 3 -13 -2 -20 -10 -7 -8 -19
-15 -26 -15 -8 0 -14 -4 -14 -10 0 -5 -5 -10 -11 -10 -11 0 -125 -75 -147 -97
-7 -7 -17 -13 -21 -13 -5 0 -19 -10 -33 -22 -13 -13 -46 -41 -73 -63 -27 -22
-57 -49 -67 -59 -10 -11 -28 -20 -40 -22 -13 -1 -23 -3 -23 -4 0 -1 -65 -9
-102 -12 -7 -1 -13 -5 -13 -10 0 -5 -4 -6 -10 -3 -5 3 -32 -1 -60 -9 -27 -8
-50 -12 -50 -9 0 3 -7 0 -15 -7 -8 -7 -15 -9 -15 -5 0 4 -7 2 -15 -5 -8 -7
-15 -9 -15 -5 0 4 -7 2 -15 -5 -8 -6 -19 -9 -24 -6 -5 4 -12 2 -16 -4 -3 -5
-25 -15 -48 -21 -23 -6 -93 -35 -155 -65 -62 -30 -117 -54 -123 -54 -5 0 -9
-4 -9 -8 0 -4 -12 -13 -27 -19 -134 -57 -347 -232 -465 -383 -52 -66 -91 -138
-84 -155 6 -17 11 -16 141 46 39 18 75 34 80 35 6 1 38 14 72 27 35 14 63 24
63 22 0 -2 17 5 37 15 21 10 45 16 55 15 10 -2 18 0 18 4 0 9 64 26 88 24 6 0
12 3 12 7 0 6 92 31 117 32 5 0 15 4 24 8 9 5 38 12 65 15 27 4 58 9 69 13 24
7 36 9 95 17 94 12 125 17 135 22 5 3 -14 -17 -44 -44 -102 -90 -176 -168
-279 -293 -114 -139 -108 -132 -142 -180 -14 -19 -28 -37 -31 -40 -15 -12
-148 -215 -204 -310 -163 -282 -274 -556 -360 -898 -35 -134 -79 -383 -89
-502 -4 -36 -9 -94 -13 -130 -16 -151 -6 -930 12 -960 2 -3 7 -33 10 -65 4
-33 9 -64 12 -68 2 -4 7 -23 9 -42 8 -65 73 -303 109 -401 97 -263 194 -388
365 -475 77 -38 95 -41 115 -19 19 21 15 56 -19 176 -38 136 -41 171 -8 89 32
-79 38 -96 42 -110 2 -5 31 -64 64 -130 60 -118 133 -234 178 -287 21 -24 24
-35 22 -117 l-2 -91 -96 -97 c-53 -54 -96 -100 -96 -103 0 -4 -14 -22 -31 -41
-48 -53 -132 -176 -177 -259 -90 -165 -145 -340 -159 -505 -10 -119 -4 -311
11 -356 3 -8 7 -30 10 -50 3 -20 10 -48 15 -63 6 -14 8 -26 6 -26 -2 0 0 -12
6 -27 6 -16 12 -35 14 -43 15 -69 119 -310 138 -318 4 -2 5 -7 2 -12 -3 -5 0
-14 7 -22 7 -7 22 -31 33 -53 18 -38 101 -164 114 -175 3 -3 19 -22 34 -43 32
-42 220 -231 282 -282 37 -31 74 -61 102 -85 7 -5 14 -10 17 -10 2 0 49 -29
103 -65 54 -36 104 -65 111 -65 6 0 12 -4 12 -8 0 -11 224 -121 300 -147 3 -1
14 -5 25 -9 11 -4 34 -12 50 -18 17 -5 39 -14 50 -19 11 -4 45 -16 75 -25 30
-9 61 -21 68 -27 6 -5 12 -6 12 -2 0 4 7 2 15 -5 8 -7 15 -9 15 -5 0 4 7 2 15
-5 8 -7 15 -10 15 -7 0 3 16 -1 35 -9 19 -8 37 -14 40 -14 3 0 10 -2 17 -4 19
-6 70 -19 93 -23 10 -2 22 -7 25 -11 3 -4 15 -7 27 -6 13 1 34 -5 48 -12 14
-7 28 -13 30 -13 3 0 31 -5 63 -12 31 -7 64 -14 72 -15 8 -2 49 -10 90 -19 41
-8 84 -17 95 -20 11 -2 56 -11 100 -20 44 -9 96 -18 115 -20 19 -1 42 -5 50
-8 16 -6 88 -14 205 -23 38 -3 78 -10 87 -15 12 -7 18 -6 18 1 0 6 5 8 12 4 6
-4 30 -9 52 -10 23 -2 70 -6 106 -9 36 -3 162 -7 280 -10 118 -3 220 -6 225
-6 6 -1 14 -1 19 0 5 1 77 4 160 6 142 4 243 9 361 21 28 2 77 7 110 9 33 2
71 6 85 9 14 3 52 8 85 12 104 9 129 12 165 19 19 3 46 8 60 10 23 3 88 13
135 20 11 2 29 6 40 8 11 3 43 8 70 11 28 4 68 12 90 17 21 6 53 12 70 14 16
2 31 4 33 5 1 2 7 4 12 5 6 1 11 3 13 4 1 2 18 4 37 6 19 2 45 6 58 9 12 3 30
8 40 10 10 2 77 18 148 36 71 17 137 34 147 36 9 2 25 6 35 9 42 11 98 26 113
29 9 3 49 14 90 27 78 24 82 25 114 33 11 2 43 12 70 21 28 9 88 27 135 41 47
13 92 27 100 31 19 8 20 8 55 18 17 4 35 11 40 15 11 8 70 23 81 20 4 -1 10 2
13 7 6 9 118 48 291 104 52 17 104 34 115 39 11 5 63 25 115 45 132 51 220 85
255 100 17 7 87 39 158 70 70 31 131 54 135 51 12 -7 223 -19 332 -18 92 0
157 6 210 18 14 3 39 7 55 10 17 3 44 9 61 15 17 5 40 11 50 13 10 3 31 9 47
15 15 6 27 8 27 5 0 -2 8 0 18 5 9 5 31 11 49 14 46 7 278 115 348 161 62 42
86 61 169 138 28 26 54 48 59 48 4 0 7 4 7 9 0 5 17 27 38 48 119 124 221 293
299 493 33 85 81 227 89 263 1 4 3 9 4 12 1 3 3 8 4 13 8 31 17 71 21 89 3 13
7 33 10 45 3 13 7 37 10 53 3 17 8 44 11 60 10 53 12 308 2 375 -18 130 -19
135 -53 253 -22 77 -24 92 -12 106 30 35 139 227 196 344 123 254 245 595 277
777 3 14 7 36 9 49 2 14 9 47 14 75 6 28 13 69 16 91 14 96 25 184 30 234 5
55 14 79 16 48 2 -19 1 -18 18 -77 15 -51 13 -44 31 -127 7 -35 15 -63 19 -63
23 1 39 32 46 90 2 16 9 55 14 87 6 32 13 74 16 93 3 19 10 60 15 90 9 55 7
438 -3 536 -6 53 -9 74 -28 204 -15 104 -16 111 -23 145 -4 17 -9 46 -12 65
-15 93 -64 311 -98 440 -66 248 -171 504 -286 695 -17 28 -38 65 -47 83 -9 17
-20 32 -25 32 -4 0 -8 4 -8 10 0 5 -28 49 -62 96 -35 48 -67 93 -73 102 -5 8
-17 23 -25 32 -8 9 -24 29 -34 44 -11 15 -33 42 -50 60 -17 18 -53 56 -79 84
-26 29 -50 52 -52 52 -5 0 -34 23 -59 45 -19 18 -107 75 -115 75 -4 0 -18 10
-31 23 -14 12 -26 21 -27 20 -2 -2 -27 8 -55 21 -29 13 -71 29 -94 35 -38 10
-44 17 -95 111 -30 55 -57 100 -61 100 -5 0 -8 4 -8 10 0 21 -202 318 -268
395 -106 122 -215 227 -343 329 -46 37 -91 73 -100 80 -9 7 -58 42 -110 77
-51 35 -98 69 -104 74 -7 6 -28 19 -48 30 -20 11 -37 23 -37 27 0 5 -4 8 -9 8
-5 0 -37 18 -70 40 -33 22 -63 40 -66 40 -4 0 -19 8 -33 19 -25 17 -112 65
-237 130 -27 14 -53 31 -57 36 -4 6 -8 7 -8 3 0 -4 -41 13 -90 38 -50 24 -96
44 -103 44 -7 0 -21 6 -32 13 -41 27 -432 167 -505 181 -8 2 -22 6 -30 9 -16
6 -211 55 -251 62 -24 5 -53 10 -99 20 -39 7 -82 15 -120 20 -19 3 -44 7 -55
10 -11 2 -47 7 -80 10 -33 4 -73 9 -90 11 -49 8 -96 14 -160 18 -33 3 -80 7
-105 10 -25 3 -94 8 -154 11 -60 3 -112 8 -117 10 -4 3 -10 1 -14 -5 -4 -6
-12 -7 -24 -1 -16 9 -806 13 -814 4z"/>
</g>
</svg>
